<?xml version="1.0" encoding="utf-8"?>
<!-- Generator: Adobe Illustrator 16.0.0, SVG Export Plug-In . SVG Version: 6.00 Build 0)  -->
<!DOCTYPE svg PUBLIC "-//W3C//DTD SVG 1.1//EN" "http://www.w3.org/Graphics/SVG/1.1/DTD/svg11.dtd">
<svg version="1.1" id="图层_1" xmlns="http://www.w3.org/2000/svg" xmlns:xlink="http://www.w3.org/1999/xlink" x="0px" y="0px"
	 width="110px" height="110px" viewBox="0 0 110 110" enable-background="new 0 0 110 110" xml:space="preserve">
<path fill="#FFFFFF" d="M98.252,86.945c0,7.828-6.346,14.173-14.173,14.173H28.642c-7.827,0-14.173-6.346-14.173-14.173V30.354
	c0-7.828,6.346-14.173,14.173-14.173h55.438c7.827,0,14.173,6.346,14.173,14.173V86.945z"/>
<path fill="none" stroke="#601986" stroke-width="8.388" stroke-miterlimit="10" d="M99.435,85.79
	c0,8.742-7.087,15.829-15.829,15.829H29.229c-8.742,0-15.829-7.087-15.829-15.829V31.414c0-8.742,7.087-15.829,15.829-15.829h54.376
	c8.742,0,15.829,7.087,15.829,15.829V85.79z"/>
<g>
	<path fill="#601986" d="M86.096,28.225H27.02c-2.251,0-4.075,1.826-4.075,4.078v2.055h37.432v4.669H22.944v2.056
		c0,2.251,1.824,4.076,4.075,4.076h59.076c2.251,0,4.077-1.825,4.077-4.076v-8.78C90.173,30.051,88.347,28.225,86.096,28.225z
		 M81.203,40.079c-1.824,0-3.305-1.48-3.305-3.305s1.48-3.306,3.305-3.306c1.826,0,3.306,1.48,3.306,3.306
		S83.029,40.079,81.203,40.079z"/>
	<path fill="#601986" d="M86.096,50.135H27.02c-2.251,0-4.075,1.826-4.075,4.077v2.055h37.432v4.669H22.944v2.056
		c0,2.251,1.824,4.076,4.075,4.076h59.076c2.251,0,4.077-1.824,4.077-4.076v-8.78C90.173,51.961,88.347,50.135,86.096,50.135z
		 M81.203,61.989c-1.824,0-3.305-1.48-3.305-3.305s1.48-3.305,3.305-3.305c1.826,0,3.306,1.48,3.306,3.305
		S83.029,61.989,81.203,61.989z"/>
	<path fill="#601986" d="M86.096,72.045H27.02c-2.251,0-4.075,1.826-4.075,4.078v2.055h37.432v4.669H22.944v2.057
		c0,2.251,1.824,4.076,4.075,4.076h59.076c2.251,0,4.077-1.825,4.077-4.076v-8.78C90.173,73.871,88.347,72.045,86.096,72.045z
		 M81.203,83.899c-1.824,0-3.305-1.48-3.305-3.305c0-1.825,1.48-3.305,3.305-3.305c1.826,0,3.306,1.48,3.306,3.305
		C84.509,82.419,83.029,83.899,81.203,83.899z"/>
</g>
</svg>
