<?xml version="1.0" encoding="utf-8"?>
<!-- Generator: Adobe Illustrator 16.0.0, SVG Export Plug-In . SVG Version: 6.00 Build 0)  -->
<!DOCTYPE svg PUBLIC "-//W3C//DTD SVG 1.1//EN" "http://www.w3.org/Graphics/SVG/1.1/DTD/svg11.dtd">
<svg version="1.1" id="图层_1" xmlns="http://www.w3.org/2000/svg" xmlns:xlink="http://www.w3.org/1999/xlink" x="0px" y="0px"
	 width="110px" height="110px" viewBox="0 0 110 110" enable-background="new 0 0 110 110" xml:space="preserve">
<polygon fill="#FFFFFF" points="15.482,34.613 53.118,12.885 90.754,34.613 90.753,78.07 53.118,99.799 15.482,78.07 "/>
<polygon fill="none" stroke="#EA5514" stroke-width="11.7062" stroke-miterlimit="10" points="15.047,33.697 53.577,11.452 
	92.107,33.697 92.107,78.189 53.577,100.435 15.047,78.189 "/>
<polygon fill="#EA5514" points="29.489,57.562 29.489,87.314 47.567,87.314 47.567,68.747 58.476,68.747 58.476,87.314 
	77.663,87.314 77.663,57.562 "/>
<polygon fill="#EA5514" points="75.755,45.028 75.755,36.794 68.185,36.794 68.185,40.368 53.223,31.159 23.58,49.839 23.58,54.822 
	83.572,54.822 83.572,49.84 "/>
</svg>
