<?xml version="1.0" encoding="utf-8"?>
<!-- Generator: Adobe Illustrator 16.0.0, SVG Export Plug-In . SVG Version: 6.00 Build 0)  -->
<!DOCTYPE svg PUBLIC "-//W3C//DTD SVG 1.1//EN" "http://www.w3.org/Graphics/SVG/1.1/DTD/svg11.dtd">
<svg version="1.1" id="图层_1" xmlns="http://www.w3.org/2000/svg" xmlns:xlink="http://www.w3.org/1999/xlink" x="0px" y="0px"
	 width="110px" height="110px" viewBox="0 0 110 110" enable-background="new 0 0 110 110" xml:space="preserve">
<path fill="#FFFFFF" d="M108.398,72.201c0,7.94-6.437,14.376-14.376,14.376H18.36c-7.94,0-14.376-6.437-14.376-14.376V35.636
	c0-7.94,6.437-14.376,14.376-14.376h75.662c7.939,0,14.376,6.437,14.376,14.376V72.201z"/>
<path fill="#2EA7E0" d="M92.676,18.969H17.324c-9.038,0-16.39,7.353-16.39,16.39v37.263c0,9.038,7.353,16.39,16.39,16.39h75.352
	c9.038,0,16.39-7.353,16.39-16.39V35.359C109.066,26.322,101.713,18.969,92.676,18.969z M105.062,39.972
	c0,2.218-1.479,4.077-3.501,4.683v0.277c1.509,0.836,2.538,2.435,2.538,4.283v9.272c0,1.846-1.031,3.434-2.538,4.271v9.864
	c0,3.774-2.37,6.998-5.696,8.283c-0.753,1.739-2.482,2.958-4.498,2.958H78.693c-1.77,0-3.3-0.949-4.159-2.355h-1.662
	c-1.305,0.797-2.781,1.385-4.414,1.744c-1.871,0.412-4.441,0.611-7.858,0.611H44.613c-1.768,0-3.29-0.95-4.146-2.355h-3.137
	c-0.898,0.616-1.869,1.157-2.916,1.614c-2.682,1.171-5.773,1.765-9.189,1.765c-3.24,0-6.232-0.554-8.893-1.646
	c-2.906-1.194-5.292-3.029-7.089-5.455c-1.773-2.392-2.845-5.052-3.188-7.906C5.79,67.657,5.66,64.019,5.66,58.758v-8.339
	c0-5.131,0.123-8.714,0.377-10.954c0.325-2.873,1.355-5.531,3.063-7.899c0.168-0.234,0.369-0.438,0.549-0.661
	c0.972-1.668,2.466-2.997,4.264-3.747c0.672-0.406,1.378-0.776,2.125-1.103c2.679-1.171,5.771-1.765,9.188-1.765
	c3.238,0,6.229,0.554,8.892,1.646c0.396,0.163,0.771,0.351,1.148,0.538h6.215c0.847-0.717,1.933-1.16,3.133-1.16h9.483
	c6.69,0,11.028,0.318,13.653,1.001c0.177,0.046,0.335,0.109,0.508,0.159h7.277c0.851-0.723,1.952-1.16,3.158-1.16h21.465
	c2.708,0,4.904,2.195,4.904,4.904V39.972z"/>
<g>
	<path fill="#2EA7E0" d="M39.887,58.758c0,4.897-0.116,8.364-0.347,10.401s-0.953,3.898-2.167,5.584s-2.855,2.98-4.922,3.884
		c-2.067,0.903-4.476,1.354-7.225,1.354c-2.609,0-4.953-0.426-7.03-1.279s-3.748-2.132-5.013-3.838
		c-1.264-1.706-2.017-3.563-2.258-5.57c-0.241-2.006-0.361-5.519-0.361-10.537v-8.339c0-4.897,0.115-8.364,0.346-10.401
		c0.23-2.037,0.953-3.899,2.168-5.585c1.214-1.686,2.854-2.98,4.922-3.883c2.067-0.903,4.476-1.355,7.226-1.355
		c2.609,0,4.952,0.427,7.03,1.279c2.077,0.854,3.748,2.133,5.012,3.839c1.265,1.706,2.017,3.563,2.258,5.569
		c0.241,2.007,0.361,5.52,0.361,10.537V58.758z M27.212,42.742c0-2.268-0.125-3.718-0.376-4.35s-0.768-0.948-1.55-0.948
		c-0.662,0-1.169,0.256-1.52,0.768c-0.352,0.512-0.527,2.022-0.527,4.531v22.76c0,2.83,0.115,4.576,0.346,5.238
		c0.23,0.662,0.768,0.993,1.61,0.993c0.863,0,1.415-0.381,1.656-1.144c0.241-0.763,0.361-2.579,0.361-5.449V42.742z"/>
	<path fill="#2EA7E0" d="M44.613,30.218h9.483c6.121,0,10.261,0.282,12.418,0.843c2.157,0.562,3.798,1.485,4.922,2.77
		c1.124,1.285,1.826,2.715,2.107,4.29c0.281,1.576,0.421,4.672,0.421,9.288v17.07c0,4.376-0.206,7.301-0.617,8.776
		c-0.412,1.475-1.129,2.629-2.152,3.462c-1.024,0.833-2.288,1.415-3.793,1.746c-1.505,0.331-3.773,0.497-6.804,0.497H44.613V30.218z
		 M57.288,38.557V70.62c1.826,0,2.951-0.366,3.372-1.099c0.421-0.732,0.632-2.725,0.632-5.976V44.608
		c0-2.208-0.071-3.623-0.211-4.245c-0.141-0.622-0.462-1.079-0.963-1.37C59.616,38.703,58.673,38.557,57.288,38.557z"/>
	<path fill="#2EA7E0" d="M78.693,30.218h21.465v9.754h-8.791v9.243h7.828v9.272h-7.828v20.472H78.693V30.218z"/>
</g>
</svg>
