<?xml version="1.0" encoding="utf-8"?>
<!-- Generator: Adobe Illustrator 16.0.0, SVG Export Plug-In . SVG Version: 6.00 Build 0)  -->
<!DOCTYPE svg PUBLIC "-//W3C//DTD SVG 1.1//EN" "http://www.w3.org/Graphics/SVG/1.1/DTD/svg11.dtd">
<svg version="1.1" id="图层_1" xmlns="http://www.w3.org/2000/svg" xmlns:xlink="http://www.w3.org/1999/xlink" x="0px" y="0px"
	 width="110px" height="110px" viewBox="0 0 110 110" enable-background="new 0 0 110 110" xml:space="preserve">
<polygon fill="#FFFFFF" points="32.532,98.858 8.651,57.495 32.532,16.132 80.294,16.132 104.175,57.495 80.294,98.858 "/>
<g>
	<path fill="#172A88" d="M75.508,30.727v25.93l19.078,0.008l12.57,0.867L82.706,98.821l-48.682,0.024L10.331,56.119l9.022-6.271
		h23.011V30.727H75.508z M57.201,44.325h-5.19v6.671h5.19V44.325z M66.095,44.325h-5.19v6.671h5.19V44.325z M57.201,62.487h-5.19
		v6.669h5.19V62.487z M66.095,62.487h-5.19v6.669h5.19V62.487z M57.201,80.647h-5.19v6.671h5.19V80.647z M66.095,80.647h-5.19v6.671
		h5.19V80.647z M33.227,59.533h-5.191v6.673h5.191V59.533z M33.227,72.47h-5.191v6.672h5.191V72.47z M87.518,68.012h-5.19v6.671
		h5.19V68.012z"/>
	<path fill="#172A88" d="M79.974,103.833h-47.42c-1.965,0-3.781-1.048-4.763-2.75L4.081,60.016c-0.982-1.702-0.982-3.798,0-5.5
		l23.71-41.067c0.982-1.702,2.798-2.75,4.763-2.75h47.42c1.965,0,3.781,1.048,4.763,2.75l23.708,41.067
		c0.982,1.702,0.982,3.798,0,5.5l-23.708,41.067C83.755,102.785,81.939,103.833,79.974,103.833z M35.729,92.833h41.069
		l20.533-35.567L76.798,21.699H35.729L15.195,57.266L35.729,92.833z"/>
</g>
</svg>
