<svg id="图层_1" data-name="图层 1" xmlns="http://www.w3.org/2000/svg" viewBox="0 0 76 100"><defs><style>.cls-1{fill:#f7931e;}.cls-2{fill:#fff;}</style></defs><title>传输系统机房</title><path class="cls-1" d="M71,37.63C71,60.31,42,87,38,95.38,34,87,5,63.41,5,37.63a33,33,0,0,1,66,0Z"/><circle class="cls-2" cx="38" cy="36.59" r="25.78"/><path class="cls-1" d="M38,58.25,18.6,47.16V25L38,13.91,57.4,25V47.16Zm-14.29-14L38,52.4l14.28-8.16V27.92L38,19.75,23.72,27.92Z"/><polygon class="cls-1" points="28.19 33.92 28.19 45.92 35.55 45.92 35.55 38.43 40 38.43 40 45.92 47.81 45.92 47.81 33.92 28.19 33.92"/><polygon class="cls-1" points="47.03 28.47 47.03 25.55 43.95 25.55 43.95 26.99 37.86 23.28 25.78 29.89 25.78 32.82 50.22 32.82 50.22 30.32 47.03 28.47"/></svg>